<svg class="svgicon svgicon-delete" xmlns="http://www.w3.org/2000/svg" width="33" height="34" viewBox="0 0 33 34"><path d="M31.28 6.12H25.84V2.72C25.84 1.21975 24.6203 0 23.12 0H9.52C8.01975 0 6.8 1.21975 6.8 2.72V6.12H1.36C0.60775 6.12 0 6.72775 0 7.48V8.84C0 9.027 0.153 9.18 0.34 9.18H2.907L3.95675 31.4075C4.02475 32.8568 5.22325 34 6.6725 34H25.9675C27.421 34 28.6153 32.861 28.6833 31.4075L29.733 9.18H32.3C32.487 9.18 32.64 9.027 32.64 8.84V7.48C32.64 6.72775 32.0322 6.12 31.28 6.12ZM22.78 6.12H9.86V3.06H22.78V6.12Z"/></svg>