<svg class="svgicon svgicon-back" xmlns="http://www.w3.org/2000/svg" width="34" height="38" viewBox="0 0 34 38"><path d="M10.5527 4.22624C9.99293 4.22624 9.45611 4.4486 9.06031 4.84441C8.66451 5.24021 8.44215 5.77703 8.44215 6.33678C8.44215 6.89653 8.66451 7.43335 9.06031 7.82915C9.45611 8.22496 9.99293 8.44732 10.5527 8.44732C11.1124 8.44732 11.6493 8.22496 12.0451 7.82915C12.4409 7.43335 12.6632 6.89653 12.6632 6.33678C12.6632 5.77703 12.4409 5.24021 12.0451 4.84441C11.6493 4.4486 11.1124 4.22624 10.5527 4.22624ZM4.57986 4.22624C5.0159 2.99046 5.82453 1.92034 6.89428 1.16341C7.96402 0.40648 9.24222 0 10.5527 0C11.8631 0 13.1413 0.40648 14.2111 1.16341C15.2808 1.92034 16.0895 2.99046 16.5255 4.22624H31.658C32.2178 4.22624 32.7546 4.4486 33.1504 4.84441C33.5462 5.24021 33.7686 5.77703 33.7686 6.33678C33.7686 6.89653 33.5462 7.43335 33.1504 7.82915C32.7546 8.22496 32.2178 8.44732 31.658 8.44732H16.5255C16.0895 9.68311 15.2808 10.7532 14.2111 11.5102C13.1413 12.2671 11.8631 12.6736 10.5527 12.6736C9.24222 12.6736 7.96402 12.2671 6.89428 11.5102C5.82453 10.7532 5.0159 9.68311 4.57986 8.44732H2.11054C1.55079 8.44732 1.01396 8.22496 0.618162 7.82915C0.22236 7.43335 0 6.89653 0 6.33678C0 5.77703 0.22236 5.24021 0.618162 4.84441C1.01396 4.4486 1.55079 4.22624 2.11054 4.22624H4.57986ZM23.2159 16.8895C22.6562 16.8895 22.1193 17.1118 21.7235 17.5076C21.3277 17.9034 21.1054 18.4403 21.1054 19C21.1054 19.5597 21.3277 20.0966 21.7235 20.4924C22.1193 20.8882 22.6562 21.1105 23.2159 21.1105C23.7756 21.1105 24.3125 20.8882 24.7083 20.4924C25.1041 20.0966 25.3264 19.5597 25.3264 19C25.3264 18.4403 25.1041 17.9034 24.7083 17.5076C24.3125 17.1118 23.7756 16.8895 23.2159 16.8895ZM17.2431 16.8895C17.6791 15.6537 18.4877 14.5836 19.5575 13.8266C20.6272 13.0697 21.9054 12.6632 23.2159 12.6632C24.5264 12.6632 25.8046 13.0697 26.8743 13.8266C27.9441 14.5836 28.7527 15.6537 29.1887 16.8895H31.658C32.2178 16.8895 32.7546 17.1118 33.1504 17.5076C33.5462 17.9034 33.7686 18.4403 33.7686 19C33.7686 19.5597 33.5462 20.0966 33.1504 20.4924C32.7546 20.8882 32.2178 21.1105 31.658 21.1105H29.1887C28.7527 22.3463 27.9441 23.4164 26.8743 24.1734C25.8046 24.9303 24.5264 25.3368 23.2159 25.3368C21.9054 25.3368 20.6272 24.9303 19.5575 24.1734C18.4877 23.4164 17.6791 22.3463 17.2431 21.1105H2.11054C1.55079 21.1105 1.01396 20.8882 0.618162 20.4924C0.22236 20.0966 0 19.5597 0 19C0 18.4403 0.22236 17.9034 0.618162 17.5076C1.01396 17.1118 1.55079 16.8895 2.11054 16.8895H17.2431ZM10.5527 29.5527C9.99293 29.5527 9.45611 29.775 9.06031 30.1708C8.66451 30.5666 8.44215 31.1035 8.44215 31.6632C8.44215 32.223 8.66451 32.7598 9.06031 33.1556C9.45611 33.5514 9.99293 33.7738 10.5527 33.7738C11.1124 33.7738 11.6493 33.5514 12.0451 33.1556C12.4409 32.7598 12.6632 32.223 12.6632 31.6632C12.6632 31.1035 12.4409 30.5666 12.0451 30.1708C11.6493 29.775 11.1124 29.5527 10.5527 29.5527ZM4.57986 29.5527C5.0159 28.3169 5.82453 27.2468 6.89428 26.4898C7.96402 25.7329 9.24222 25.3264 10.5527 25.3264C11.8631 25.3264 13.1413 25.7329 14.2111 26.4898C15.2808 27.2468 16.0895 28.3169 16.5255 29.5527H31.658C32.2178 29.5527 32.7546 29.775 33.1504 30.1708C33.5462 30.5666 33.7686 31.1035 33.7686 31.6632C33.7686 32.223 33.5462 32.7598 33.1504 33.1556C32.7546 33.5514 32.2178 33.7738 31.658 33.7738H16.5255C16.0895 35.0095 15.2808 36.0797 14.2111 36.8366C13.1413 37.5935 11.8631 38 10.5527 38C9.24222 38 7.96402 37.5935 6.89428 36.8366C5.82453 36.0797 5.0159 35.0095 4.57986 33.7738H2.11054C1.55079 33.7738 1.01396 33.5514 0.618162 33.1556C0.22236 32.7598 0 32.223 0 31.6632C0 31.1035 0.22236 30.5666 0.618162 30.1708C1.01396 29.775 1.55079 29.5527 2.11054 29.5527H4.57986Z"/></svg>