<svg class="svgicon svgicon-homemenu" xmlns="http://www.w3.org/2000/svg" width="90" height="89" viewBox="0 0 90 89"><path d="M89.4777 25.8549V63.1451C89.4777 79.3439 79.8216 89 63.6228 89H26.3771C10.1783 89 0.522163 79.3439 0.522163 63.1006V25.8549C0.522163 9.65612 10.1783 0 26.3771 0H63.6672C79.866 0 89.5222 9.65612 89.4777 25.8549ZM25.5765 62.6558C25.5765 61.7711 25.225 60.9226 24.5994 60.297C23.9739 59.6714 23.1254 59.32 22.2407 59.32C21.3559 59.32 20.5075 59.6714 19.8819 60.297C19.2563 60.9226 18.9048 61.7711 18.9048 62.6558V71.8672C18.9048 72.7519 19.2563 73.6004 19.8819 74.226C20.5075 74.8515 21.3559 75.203 22.2407 75.203C23.1254 75.203 23.9739 74.8515 24.5994 74.226C25.225 73.6004 25.5765 72.7519 25.5765 71.8672V62.6558ZM48.3602 53.4C48.3602 52.5153 48.0088 51.6668 47.3832 51.0412C46.7576 50.4156 45.9091 50.0642 45.0244 50.0642C44.1397 50.0642 43.2912 50.4156 42.6656 51.0412C42.04 51.6668 41.6886 52.5153 41.6886 53.4V71.8583C41.6886 72.743 42.04 73.5915 42.6656 74.2171C43.2912 74.8427 44.1397 75.1941 45.0244 75.1941C45.9091 75.1941 46.7576 74.8427 47.3832 74.2171C48.0088 73.5915 48.3602 72.743 48.3602 71.8583V53.4ZM71.144 44.1887C71.144 43.3039 70.7925 42.4555 70.1669 41.8299C69.5413 41.2043 68.6928 40.8528 67.8081 40.8528C66.9234 40.8528 66.0749 41.2043 65.4493 41.8299C64.8237 42.4555 64.4723 43.3039 64.4723 44.1887V71.8672C64.4723 72.7519 64.8237 73.6004 65.4493 74.226C66.0749 74.8515 66.9234 75.203 67.8081 75.203C68.6928 75.203 69.5413 74.8515 70.1669 74.226C70.7925 73.6004 71.144 72.7519 71.144 71.8672V44.1887ZM71.1884 30.127V17.0884C71.1884 17.0439 71.144 16.9994 71.144 16.9549C71.1251 16.7136 71.0804 16.475 71.0105 16.2433C70.9922 16.0454 70.9474 15.8509 70.8771 15.6651C70.806 15.4833 70.7003 15.3171 70.5657 15.1758C70.4308 14.9872 70.2822 14.8088 70.121 14.6421C70.0765 14.6421 70.0765 14.5976 70.032 14.5531C69.8986 14.4642 69.7651 14.4197 69.6317 14.3307C69.4341 14.1956 69.2258 14.0766 69.009 13.9749C68.7914 13.9092 68.568 13.8645 68.3419 13.8415C68.1639 13.8415 68.0305 13.7525 67.8526 13.7525H54.8117C53.927 13.7525 53.0785 14.104 52.4529 14.7296C51.8273 15.3552 51.4759 16.2036 51.4759 17.0884C51.4759 17.9731 51.8273 18.8216 52.4529 19.4471C53.0785 20.0727 53.927 20.4242 54.8117 20.4242H60.3714C49.8248 31.5643 36.3117 39.4551 21.4267 43.1657C20.9995 43.2698 20.5971 43.4574 20.2427 43.7176C19.8883 43.9777 19.5888 44.3054 19.3614 44.6818C19.1341 45.0582 18.9834 45.4757 18.918 45.9105C18.8526 46.3454 18.8738 46.7888 18.9804 47.2154C19.1643 47.9386 19.5831 48.5802 20.1712 49.0395C20.7593 49.4988 21.4833 49.7497 22.2295 49.7528C22.4995 49.7673 22.77 49.7372 23.0301 49.6639C38.801 45.7428 53.1568 37.479 64.4678 25.8104V30.127C64.4678 31.0117 64.8193 31.8602 65.4449 32.4858C66.0705 33.1114 66.919 33.4628 67.8037 33.4628C68.6884 33.4628 69.5369 33.1114 70.1625 32.4858C70.788 31.8602 71.1395 31.0117 71.1395 30.127H71.1884Z"/></svg>