<svg class="svgicon svgicon-homemenu" xmlns="http://www.w3.org/2000/svg" width="114" height="89" viewBox="0 0 114 89"><path d="M66.5295 9.22638C66.5223 19.5416 66.5173 29.8589 66.5144 40.1785C64.4663 40.4624 63.7542 41.5295 62.1858 43.029C60.933 44.1571 59.8173 45.4287 58.8619 46.8176C58.7113 47.0048 56.9859 48.7539 56.7772 48.9325C56.4932 46.8994 53.6125 46.3379 52.1259 46.1357C50.3133 45.8345 48.4522 46.1545 46.8442 47.0435C45.4867 47.8159 45.4178 49.0981 46.003 50.5761C46.3709 51.4991 45.861 49.6166 46.7388 53.0588C46.5516 55.9396 46.5237 54.0635 46.4828 55.4749C46.4677 55.9847 46.4677 56.4882 46.4677 56.998C44.053 59.5855 42.6746 62.971 42.5952 66.5093C42.5285 69.8031 42.5952 73.1034 42.5802 76.4057C42.4745 77.9671 42.9174 79.5164 43.8323 80.786C44.3287 81.4319 44.6889 82.1718 44.8912 82.9609C45.0934 83.75 45.1336 84.572 45.0091 85.3771C44.994 85.6245 45.0091 85.8719 45.0091 86.1279C45.0192 87.1774 45.3899 88.1914 46.059 89H7.57486C7.4268 88.9267 7.27366 88.8641 7.11662 88.8128C5.36183 88.3923 3.77776 87.4449 2.57718 86.0978C1.08588 84.3357 0.312449 82.0769 0.410727 79.7705C0.433676 56.2486 0.438696 32.7311 0.425787 9.21778C0.425787 8.81332 0.440847 8.4067 0.455907 8.00224C0.597211 5.90598 1.50316 3.93454 3.00183 2.46205C4.5005 0.989552 6.4876 0.118474 8.58602 0.014122C25.1876 -0.00882622 41.7863 -0.00380631 58.3821 0.0291817C59.5316 0.0439966 60.664 0.309434 61.7003 0.806975C62.7367 1.30452 63.652 2.02218 64.3824 2.9099C65.8937 4.65546 66.6654 6.92122 66.5338 9.22638H66.5295ZM20.8683 70.5884C20.8455 70.2623 20.7583 69.944 20.6118 69.6518C20.4653 69.3596 20.2624 69.0992 20.0148 68.8858C19.7672 68.6724 19.4797 68.5102 19.1691 68.4084C18.8585 68.3066 18.5308 68.2673 18.2049 68.2928C17.0496 68.2778 15.8943 68.2713 14.739 68.2928C14.1119 68.2777 13.5032 68.5057 13.0404 68.9292C12.5777 69.3526 12.2967 69.9387 12.2563 70.5647C12.1887 71.574 12.1887 72.5867 12.2563 73.596C12.2745 74.1375 12.4818 74.6554 12.8422 75.0598C13.2026 75.4643 13.6934 75.7296 14.2291 75.8098C15.0008 75.9068 15.7771 75.9621 16.5548 75.9755V75.9238C17.1313 75.9238 17.7101 75.9454 18.2866 75.9238C18.9475 75.9405 19.5889 75.6992 20.0749 75.251C20.5608 74.8028 20.8531 74.1829 20.8898 73.5229C20.9839 72.5473 20.9767 71.5625 20.8683 70.5884ZM12.2627 58.1512C12.2983 58.7789 12.5717 59.3695 13.0274 59.8028C13.483 60.236 14.0866 60.4794 14.7153 60.4833C15.322 60.5048 15.9309 60.4833 16.5376 60.4833C17.1443 60.4833 17.8047 60.5134 18.4437 60.4833C19.0288 60.4812 19.5934 60.2675 20.0331 59.8815C20.4729 59.4955 20.7581 58.9634 20.836 58.3835C20.9586 57.2946 20.9687 56.1959 20.8662 55.1048C20.812 54.4755 20.519 53.8908 20.0473 53.4707C19.5756 53.0506 18.961 52.827 18.3297 52.8459C17.145 52.8086 15.9596 52.8086 14.7734 52.8459C14.1148 52.8378 13.4796 53.0899 13.0058 53.5476C12.5321 54.0052 12.2581 54.6313 12.2434 55.2898C12.1793 56.2414 12.1865 57.1964 12.2649 58.1469L12.2627 58.1512ZM25.0678 45.0277C28.5101 45.0277 31.9523 45.0428 35.3945 45.0277C35.7419 45.0493 36.0899 44.9979 36.4161 44.8766C36.7423 44.7553 37.0394 44.5669 37.2882 44.3235C37.537 44.0802 37.7319 43.7874 37.8605 43.464C37.989 43.1405 38.0482 42.7938 38.0343 42.446C38.0493 41.5855 38.0493 40.7142 38.0192 39.8428C38.0067 39.2887 37.8037 38.7559 37.4444 38.3339C37.0851 37.9119 36.5914 37.6265 36.0464 37.5258C35.6207 37.4469 35.1884 37.4095 34.7556 37.4139C28.4448 37.4067 22.1341 37.4067 15.8233 37.4139C15.5608 37.4139 15.3048 37.4139 15.0423 37.4139C14.6652 37.3819 14.2856 37.4319 13.9297 37.5606C13.5738 37.6893 13.2499 37.8935 12.9805 38.1593C12.711 38.4251 12.5023 38.7461 12.3688 39.1002C12.2352 39.4543 12.18 39.8332 12.2068 40.2107C12.1853 40.9078 12.1853 41.607 12.2068 42.2954C12.1755 42.6736 12.2289 43.054 12.3631 43.409C12.4972 43.764 12.7088 44.0845 12.9825 44.3475C13.2561 44.6104 13.5849 44.809 13.945 44.9289C14.305 45.0488 14.6872 45.087 15.0639 45.0406C18.3942 45.0406 21.7274 45.0406 25.0635 45.0406L25.0678 45.0277ZM38.03 70.825C38.0355 70.4847 37.9715 70.1469 37.8418 69.8322C37.7121 69.5175 37.5194 69.2327 37.2757 68.9951C37.0319 68.7576 36.7421 68.5724 36.4242 68.4509C36.1063 68.3294 35.7668 68.2741 35.4268 68.2885C34.3016 68.2735 33.1678 68.2735 32.0426 68.2885C31.6947 68.2687 31.3463 68.3199 31.0187 68.439C30.6911 68.558 30.3912 68.7426 30.1372 68.9813C29.8832 69.22 29.6804 69.5079 29.5412 69.8274C29.402 70.147 29.3294 70.4915 29.3276 70.8401C29.2826 71.6771 29.2826 72.5159 29.3276 73.3529C29.337 73.9972 29.587 74.6147 30.0285 75.084C30.47 75.5533 31.071 75.8406 31.7135 75.8894C32.3774 75.9319 33.0433 75.937 33.7078 75.9045V75.9432C34.2564 75.9432 34.8029 75.9647 35.3515 75.9432C35.7141 75.9585 36.0758 75.8973 36.4132 75.7634C36.7505 75.6295 37.0558 75.426 37.3091 75.1661C37.5625 74.9062 37.7582 74.5959 37.8835 74.2553C38.0088 73.9147 38.0609 73.5515 38.0364 73.1894C38.0515 72.4085 38.0579 71.6211 38.0364 70.8423L38.03 70.825ZM38.03 55.5136C38.0478 55.1579 37.991 54.8024 37.8632 54.4699C37.7354 54.1375 37.5395 53.8354 37.2881 53.5832C37.0367 53.3309 36.7352 53.1341 36.4032 53.0052C36.0712 52.8764 35.7159 52.8184 35.3601 52.8351C34.2349 52.805 33.1011 52.805 31.976 52.8351C31.6276 52.8296 31.2817 52.8939 30.9586 53.024C30.6354 53.1541 30.3415 53.3475 30.0942 53.5929C29.8469 53.8382 29.6511 54.1305 29.5183 54.4526C29.3855 54.7747 29.3185 55.12 29.3211 55.4684C29.2838 56.2788 29.2838 57.0891 29.3211 57.8995C29.3264 58.2478 29.401 58.5915 29.5405 58.9107C29.6801 59.2299 29.8818 59.518 30.134 59.7584C30.3861 59.9987 30.6836 60.1864 31.0091 60.3105C31.3346 60.4346 31.6816 60.4926 32.0297 60.4811C32.5783 60.4962 33.1248 60.4811 33.6734 60.4811C34.2801 60.4811 34.8889 60.5027 35.4956 60.4811C35.8287 60.4826 36.1588 60.4179 36.4667 60.2908C36.7746 60.1637 37.0542 59.9768 37.2894 59.7409C37.5245 59.505 37.7105 59.2247 37.8365 58.9164C37.9625 58.608 38.0261 58.2777 38.0235 57.9447C38.0536 57.1336 38.045 56.3247 38.0235 55.5136H38.03ZM51.3084 22.5284C51.6841 22.5337 52.0598 22.5165 52.4335 22.4768C53.05 22.4546 53.6339 22.1947 54.0631 21.7515C54.4922 21.3084 54.7331 20.7164 54.7355 20.0995C54.7958 18.2465 54.7907 16.3934 54.7205 14.5403C54.7094 13.9979 54.5078 13.4768 54.151 13.0681C53.7943 12.6594 53.3051 12.3893 52.7692 12.305C52.3725 12.2205 51.9677 12.1801 51.5622 12.1845H15.4145C15.1272 12.1744 14.8394 12.1866 14.554 12.2211C13.9223 12.2614 13.3301 12.5428 12.9001 13.0073C12.47 13.4718 12.2349 14.0838 12.2434 14.7167C12.1831 16.4787 12.1831 18.2493 12.2434 20.0135C12.2377 20.3342 12.2953 20.6529 12.4129 20.9514C12.5306 21.2499 12.7059 21.5222 12.9289 21.7528C13.1519 21.9834 13.4183 22.1678 13.7126 22.2953C14.007 22.4229 14.3236 22.4911 14.6443 22.4962C14.9884 22.5272 15.3338 22.5394 15.6792 22.5327H51.317L51.3084 22.5284ZM55.2024 39.9095C55.2109 39.3222 55.0007 38.7526 54.6126 38.3116C54.2245 37.8707 53.6863 37.5898 53.1026 37.5236C51.5801 37.3923 50.0491 37.3923 48.5266 37.5236C47.9591 37.595 47.4383 37.8746 47.0653 38.3084C46.6924 38.7421 46.494 39.299 46.5086 39.8708C46.4785 40.7636 46.4785 41.6629 46.5086 42.5557C46.5156 43.1977 46.7713 43.812 47.2219 44.2694C47.6724 44.7268 48.2828 44.9917 48.9246 45.0083C49.555 45.0385 50.1918 45.0083 50.8308 45.0083C51.4697 45.0083 52.0463 45.0234 52.653 45.0083C53.3263 45.0123 53.9737 44.7491 54.4533 44.2765C54.9328 43.8038 55.2053 43.1602 55.211 42.4869C55.2411 41.6263 55.2411 40.755 55.211 39.8923L55.2024 39.9095Z"/><path d="M113.585 76.9501C113.357 78.2816 112.814 79.5393 112.001 80.6182C111.785 80.8644 111.621 81.1529 111.522 81.4655C111.423 81.7781 111.39 82.1079 111.425 82.434C111.461 83.116 111.44 83.8066 111.425 84.4972C111.457 84.965 111.395 85.4344 111.245 85.8785C111.095 86.3226 110.858 86.7325 110.548 87.0847C110.239 87.4369 109.862 87.7243 109.441 87.9304C109.02 88.1366 108.562 88.2573 108.094 88.2858C106.35 88.4358 104.596 88.4358 102.851 88.2858C102.383 88.2605 101.924 88.1429 101.502 87.9398C101.079 87.7366 100.701 87.4519 100.388 87.1021C100.076 86.7522 99.836 86.344 99.682 85.901C99.528 85.458 99.4631 84.989 99.491 84.5208C99.491 84.325 99.4694 84.1314 99.4608 83.9055H59.5439C59.5289 84.1529 59.5224 84.3939 59.5073 84.6262C59.5376 85.5495 59.2066 86.4481 58.5847 87.1311C57.9628 87.814 57.099 88.2275 56.177 88.2836C54.4096 88.4337 52.6326 88.4337 50.8652 88.2836C49.9437 88.2189 49.0839 87.7971 48.4687 87.108C47.8535 86.4189 47.5316 85.5169 47.5714 84.594C47.5602 84.3718 47.5602 84.1492 47.5714 83.927C47.6825 83.2129 47.6473 82.4837 47.4679 81.7836C47.2886 81.0835 46.9688 80.4272 46.528 79.8545C45.7143 78.726 45.3215 77.3483 45.4179 75.9604C45.4179 73.0345 45.3727 70.1022 45.4329 67.1763C45.5153 63.9036 46.838 60.7845 49.1333 58.4503C50.0563 57.4606 50.9792 56.4774 51.9172 55.4792C51.7021 55.3888 51.3407 55.264 50.9943 55.0962C49.9606 54.6709 49.081 53.9407 48.4729 53.0029C48.2885 52.7566 48.1607 52.4727 48.0985 52.1713C48.0363 51.87 48.0412 51.5587 48.1129 51.2595C48.1845 50.9603 48.3212 50.6805 48.5132 50.4401C48.7052 50.1997 48.9478 50.0045 49.2237 49.8684C50.6541 49.0796 52.309 48.7968 53.9202 49.0659C55.2411 49.2531 55.736 49.9652 55.9898 51.7659C56.177 51.6002 56.3426 51.4668 56.4932 51.3162C58.2854 49.5951 60.0646 47.874 61.8717 46.1529C62.6891 45.3528 63.6565 44.722 64.7183 44.2967C65.7801 43.8714 66.9154 43.6599 68.0591 43.6745C75.7109 43.6745 83.3627 43.6745 91.0145 43.6745C93.3031 43.6445 95.51 44.5244 97.1502 46.1206C98.951 47.8417 100.728 49.5629 102.529 51.284C102.686 51.4346 102.843 51.5766 103.024 51.7422C103.512 49.3864 104.17 48.8163 106.541 49.0121C107.637 49.1056 108.71 49.3819 109.714 49.8296C110.011 49.9497 110.276 50.1377 110.487 50.3784C110.698 50.6191 110.85 50.906 110.93 51.2159C111.01 51.5258 111.017 51.8502 110.949 52.1632C110.882 52.4761 110.742 52.7689 110.541 53.018C109.783 54.1263 108.673 54.9459 107.391 55.3436C107.255 55.3953 107.113 55.4555 107.068 55.4706C107.909 56.3548 108.718 57.2627 109.59 58.1189C111.645 60.1347 113.002 62.7551 113.462 65.5972C113.495 65.6973 113.54 65.7927 113.598 65.8812C113.583 69.5715 113.578 73.2576 113.583 76.9393L113.585 76.9501ZM56.4007 56.3505H102.589C102.453 56.1934 102.374 56.088 102.296 56.0063C99.7986 53.5838 97.3073 51.1377 94.7794 48.7453C93.8265 47.8282 92.5522 47.3208 91.2296 47.3319C83.4201 47.3247 75.6112 47.3247 67.8031 47.3319C66.4352 47.33 65.1215 47.8663 64.1457 48.8249C61.691 51.1527 59.2814 53.5064 56.859 55.8557C56.717 55.9912 56.5965 56.1418 56.4007 56.3505ZM95.1021 66.987H63.9069C63.8811 68.3348 64.1846 69.6685 64.7912 70.8724C65.12 71.6916 65.7061 72.3819 66.4611 72.8394C67.2162 73.2968 68.0993 73.4967 68.9778 73.4089C70.4837 73.3121 71.9897 73.3874 73.4957 73.3874C79.1517 73.3874 84.8163 73.3874 90.4723 73.3874C91.3211 73.4355 92.1569 73.1621 92.813 72.6215C93.5757 71.9 94.1741 71.0227 94.5676 70.0494C94.9611 69.076 95.1405 68.0294 95.0935 66.9805L95.1021 66.987ZM65.1784 76.1605C65.1982 77.2031 65.6297 78.1954 66.3786 78.921C67.1275 79.6465 68.1331 80.0463 69.1757 80.033C76.0774 80.0115 82.979 80.033 89.8807 80.018C90.3941 80.0303 90.9047 79.9396 91.3824 79.751C91.8601 79.5625 92.2951 79.28 92.6616 78.9203C93.0281 78.5606 93.3187 78.131 93.5162 77.657C93.7137 77.1829 93.814 76.674 93.8113 76.1605C84.2691 76.1677 74.722 76.1677 65.1698 76.1605H65.1784ZM104.45 69.9215L104.471 69.7859C105.446 69.7408 106.423 69.7192 107.389 69.6353C108.092 69.5953 108.766 69.3441 109.324 68.9146C109.883 68.4851 110.298 67.8973 110.517 67.2279C110.817 66.528 110.896 65.7529 110.742 65.007C110.588 64.2611 110.209 63.5803 109.656 63.0564C109.205 62.5261 108.595 62.1558 107.917 62.0007C107.238 61.8456 106.528 61.9141 105.891 62.1958C104.459 62.7718 103.081 63.4745 101.774 64.2956C100.633 65.0524 99.5969 65.955 98.6906 66.9805C97.7914 67.9852 98.1506 68.9534 99.4867 69.2158C101.122 69.545 102.795 69.6956 104.452 69.9129L104.45 69.9215ZM54.5634 69.7859V69.7558C54.873 69.7745 55.1833 69.7745 55.4928 69.7558C56.874 69.5902 58.2681 69.4934 59.6192 69.2072C60.7896 68.9598 61.0736 68.082 60.4217 67.0989C60.1866 66.7508 59.9147 66.4291 59.6106 66.1393C58.005 64.6413 56.1498 63.4356 54.1289 62.5766C53.2917 62.1151 52.3358 61.9143 51.3837 62.0001C50.4729 62.1648 49.6513 62.6502 49.0676 63.3685C48.4839 64.0868 48.1767 64.9904 48.2018 65.9156C48.2084 66.8422 48.5564 67.7339 49.1791 68.4202C49.8018 69.1064 50.6557 69.539 51.5773 69.6353C52.5756 69.702 53.5738 69.7322 54.5634 69.7859ZM62.7022 80.033C61.0736 78.1656 59.574 76.4316 58.0444 74.7148C57.892 74.597 57.7033 74.5361 57.5108 74.5427C55.3595 74.5276 53.2081 74.5276 51.0567 74.5427C50.876 74.5427 50.6135 74.5943 50.5382 74.7234C50.082 75.3595 49.8886 76.147 49.9982 76.9221C50.2514 77.78 50.7681 78.5364 51.4751 79.0843C52.182 79.6322 53.0435 79.9438 53.9374 79.9749C56.7815 80.1772 59.645 80.0352 62.7 80.0352L62.7022 80.033ZM96.3026 80.033C99.0994 80.033 101.711 80.0115 104.321 80.033C105.661 80.0239 106.952 79.5276 107.952 78.6368C108.504 78.2288 108.882 77.6275 109.01 76.953C109.138 76.2786 109.007 75.5807 108.643 74.9988C108.587 74.8452 108.481 74.7148 108.342 74.6279C108.203 74.5411 108.04 74.5028 107.877 74.519C105.769 74.5405 103.669 74.519 101.561 74.5341C101.347 74.5175 101.135 74.5761 100.96 74.6997C99.4372 76.4208 97.9291 78.157 96.3026 80.0266V80.033Z"/></svg>