<svg class="svgicon svgicon-homemenu" xmlns="http://www.w3.org/2000/svg" width="92" height="89" viewBox="0 0 92 89"><path d="M46 31.5189C54.7037 31.5189 61.7594 24.4631 61.7594 15.7594C61.7594 7.05574 54.7037 0 46 0C37.2963 0 30.2406 7.05574 30.2406 15.7594C30.2406 24.4631 37.2963 31.5189 46 31.5189Z"/><path d="M51.7341 42.6443C51.7499 42.6705 51.7722 42.6922 51.7988 42.7072C51.8254 42.7223 51.8555 42.7302 51.8861 42.7302C51.9167 42.7302 51.9467 42.7223 51.9734 42.7072C52 42.6922 52.0223 42.6705 52.0381 42.6443L57.7704 32.9423C57.7859 32.916 57.808 32.8943 57.8345 32.8792C57.861 32.8641 57.891 32.8562 57.9215 32.8562C60.9546 32.8538 63.9854 32.8515 67.0138 32.8491C68.1724 32.848 69.0628 32.9265 69.6849 33.0846C73.4349 34.0388 75.331 36.8628 76.3591 40.3844C78.7396 48.543 81.1073 56.705 83.462 64.8706C83.9143 66.4393 84.1667 67.5803 84.2194 68.2938C84.4461 71.3357 83.3267 74.3477 81.0633 76.4318C81.0305 76.4612 80.9879 76.4775 80.9438 76.4775H73.7249C73.6783 76.4775 73.6336 76.459 73.6006 76.426C73.5676 76.3931 73.5491 76.3484 73.5491 76.3018C73.5456 68.6822 73.5445 61.0649 73.5456 53.4499C73.5456 50.9563 71.9922 48.9073 69.6989 48.2325C69.1003 48.0556 68.105 47.9672 66.7133 47.9672C52.5307 47.9648 38.3482 47.9648 24.1656 47.9672C21.7511 47.9672 19.4069 49.3484 18.7022 51.7207C18.5405 52.2667 18.4591 53.2642 18.4579 54.7134C18.4544 61.9089 18.4526 69.1051 18.4526 76.3018C18.4526 76.3484 18.4341 76.3931 18.4012 76.426C18.3682 76.459 18.3235 76.4775 18.2769 76.4775H11.0087C10.9853 76.4775 10.9622 76.473 10.9408 76.4643C10.9194 76.4555 10.9001 76.4427 10.884 76.4266C7.83507 73.3864 7.15851 69.6575 8.33063 65.5928C10.635 57.6018 12.95 49.6143 15.2755 41.6303C16.017 39.0805 16.3931 37.6114 17.8025 35.942C19.541 33.8848 21.7898 32.8579 24.5487 32.8614C27.6673 32.8673 30.7859 32.8638 33.9046 32.8509C33.9351 32.851 33.9652 32.8589 33.992 32.874C34.0188 32.889 34.0413 32.9107 34.0574 32.937L39.7845 42.6425C39.8 42.6688 39.8221 42.6905 39.8486 42.7056C39.8751 42.7207 39.9051 42.7286 39.9356 42.7286C39.9661 42.7286 39.9961 42.7207 40.0225 42.7056C40.049 42.6905 40.0712 42.6688 40.0867 42.6425L45.761 33.0424C45.7766 33.0162 45.7987 32.9945 45.8252 32.9794C45.8517 32.9643 45.8817 32.9564 45.9122 32.9564C45.9426 32.9564 45.9726 32.9643 45.9991 32.9794C46.0256 32.9945 46.0477 33.0162 46.0633 33.0424L51.7341 42.6443Z"/><path d="M68.7306 52.9737C68.7524 52.99 68.7701 53.011 68.7823 53.0351C68.7945 53.0592 68.8009 53.0857 68.8009 53.1125V76.3018C68.8009 76.3484 68.7824 76.3931 68.7494 76.426C68.7165 76.459 68.6718 76.4775 68.6252 76.4775H23.3748C23.3282 76.4775 23.2835 76.459 23.2506 76.426C23.2176 76.3931 23.1991 76.3484 23.1991 76.3018V53.3251C23.1991 52.9163 23.407 52.7118 23.8229 52.7118C38.5748 52.7095 53.3268 52.7089 68.0787 52.7101C68.3563 52.7101 68.5162 52.8103 68.7306 52.9737Z"/><path d="M91.3804 81.2222H0.619602C0.594369 81.2222 0.573914 81.2427 0.573914 81.2679V88.9543C0.573914 88.9795 0.594369 89 0.619602 89H91.3804C91.4056 89 91.4261 88.9795 91.4261 88.9543V81.2679C91.4261 81.2427 91.4056 81.2222 91.3804 81.2222Z"/></svg>