<svg class="svgicon svgicon-homemenu" xmlns="http://www.w3.org/2000/svg" width="106" height="89" viewBox="0 0 106 89"><path d="M0.287849 48.1184C0.425311 47.7838 0.619702 47.5618 0.69196 47.3054C2.8677 39.5837 7.72173 34.5403 15.5729 32.6125C17.3497 32.1762 19.2281 32.032 21.0653 31.9891C24.9743 31.8977 28.887 31.9611 32.7982 31.9612C33.0384 31.9613 33.2814 31.9385 33.5182 31.967C34.4375 32.0776 34.8996 32.3893 34.93 33.5318C35.0026 36.2599 35.9417 38.8025 37.3739 41.1081C38.3061 42.6086 39.4606 43.971 40.564 45.4608C39.9492 45.7221 39.2223 46.0587 38.4756 46.3437C34.1454 47.9968 30.7776 50.8477 28.0816 54.5733C26.1045 57.3054 24.887 60.3668 24.2232 63.6286C23.8825 65.3025 23.8605 67.0479 23.7749 68.765C23.7069 70.1296 23.7612 71.5004 23.7612 72.8337C15.7442 72.4409 8.04444 70.7089 0.370976 68.4067C0.287849 61.6761 0.287849 54.9455 0.287849 48.1184Z"/><path d="M105.712 68.1043C104.427 68.7028 103.168 69.2967 101.85 69.6875C99.1588 70.4852 96.4646 71.3219 93.7166 71.8628C91.2549 72.3473 88.7191 72.4546 86.2165 72.732C85.4163 72.8207 84.6174 72.921 83.6801 73.0323C83.6801 70.8967 83.7507 68.8833 83.666 66.8765C83.4657 62.1331 81.8661 57.8683 79.0873 54.0315C76.8188 50.8991 73.8661 48.5852 70.4401 46.8625C69.3346 46.3066 68.1479 45.9123 66.889 45.3995C70.5691 41.6585 72.6056 37.2612 72.8102 31.9612C73.1448 31.9612 73.4761 31.9612 73.8075 31.9612C77.5473 31.9612 81.2877 31.9193 85.0267 31.9731C88.6634 32.0254 92.1919 32.6355 95.4223 34.4349C98.5604 36.1828 101.097 38.5504 102.96 41.6505C104.132 43.6006 104.89 45.6948 105.434 47.8805C105.539 48.3027 105.515 48.7571 105.631 49.227C105.712 55.5075 105.712 61.7577 105.712 68.1043Z"/><path d="M72.2978 51.9807C76.4372 55.1854 78.944 59.3214 79.9534 64.3595C80.1442 65.3123 80.1666 66.31 80.1703 67.2874C80.1902 72.5695 80.1654 77.8517 80.1966 83.1336C80.2008 83.8469 79.9978 84.1947 79.3265 84.4897C75.7955 86.0413 72.1518 87.2215 68.3316 87.7445C65.1393 88.1815 61.9272 88.4872 58.7171 88.7761C56.9922 88.9313 55.2457 89.0636 53.5222 88.9673C50.5658 88.8023 47.5979 88.5924 44.6749 88.1416C40.6708 87.524 36.6942 86.7119 32.7263 85.8845C31.0836 85.542 29.4848 84.972 27.8897 84.4354C27.619 84.3443 27.2899 83.8988 27.288 83.6151C27.2522 78.2646 27.1524 72.9109 27.2958 67.5641C27.4131 63.1887 28.7012 59.1031 31.4954 55.653C34.5949 51.8259 38.5019 49.2264 43.4548 48.4431C44.8126 48.2283 46.1921 48.0571 47.5638 48.0407C51.8506 47.9895 56.1384 48.0262 60.4258 48.0207C64.5062 48.0154 68.2198 49.1849 71.5877 51.476C71.8072 51.6253 72.0246 51.7775 72.2978 51.9807Z"/><path d="M40.9002 40.3484C39.052 37.621 38.1335 34.6466 38.2043 31.4572C38.2894 27.6207 39.5567 24.1988 42.1512 21.2596C44.7138 18.3565 47.9167 16.5813 51.6606 16.1627C58.062 15.447 63.664 17.8849 67.2051 23.6752C69.0268 26.654 69.5737 29.933 69.2346 33.3252C68.9109 36.5624 67.6451 39.4422 65.4231 41.9083C63.0219 44.5732 60.0856 46.2973 56.6052 46.9108C52.8968 47.5645 49.3261 46.9906 45.9998 45.0623C43.9531 43.8759 42.2381 42.3874 40.9002 40.3484Z"/><path d="M11.2009 17.1309C11.0269 14.7647 11.1912 12.5439 12.0101 10.3828C13.9969 5.13911 17.6736 1.78494 23.1245 0.469456C27.6998 -0.634695 31.9721 0.284393 35.7646 2.97316C39.0993 5.33742 41.206 8.6177 41.8645 12.7091C42.0507 13.8657 42.0765 15.0564 42.069 16.2308C42.0669 16.5634 41.7569 16.9786 41.4707 17.2121C37.9894 20.0521 36.0807 23.7997 35.0676 28.0916C34.9821 28.4541 34.7078 28.8769 34.3964 29.0651C31.5168 30.8046 28.3481 31.4713 25.0407 31.1141C18.1768 30.3727 12.5149 25.3181 11.4063 18.5076C11.3368 18.0804 11.2693 17.6528 11.2009 17.1309Z"/><path d="M95 15.8798C94.7931 17.1517 94.6681 18.3503 94.3745 19.5059C93.0678 24.6498 89.8846 28.159 84.9658 30.1091C81.1835 31.6086 77.4105 31.4219 73.6075 30.1256C72.327 29.6891 72.5696 28.59 72.3842 27.7361C71.6477 24.3437 70.1582 21.3542 67.7651 18.8562C66.5826 17.6219 65.239 16.5421 63.7004 15.15C63.9867 13.8046 64.1706 12.0739 64.7291 10.4739C66.5773 5.17889 70.3274 1.82937 75.7463 0.48132C80.3371 -0.660695 84.662 0.252416 88.4811 2.97679C91.8033 5.34669 93.9243 8.60826 94.5898 12.7091C94.7555 13.7305 94.8676 14.7605 95 15.8798Z"/></svg>