<svg class="svgicon svgicon-pdf" xmlns="http://www.w3.org/2000/svg" width="27" height="34" viewBox="0 0 27 34"><path d="M26.3576 8.52656C26.5853 8.75424 26.7143 9.06161 26.7143 9.38415V32.7857C26.7143 33.4574 26.1717 34 25.5 34H1.21429C0.542634 34 0 33.4574 0 32.7857V1.21429C0 0.542634 0.542634 0 1.21429 0H17.3301C17.6527 0 17.9638 0.129018 18.1915 0.356696L26.3576 8.52656ZM23.9138 9.94196L16.7723 2.80045V9.94196H23.9138ZM17.957 21.7532C17.381 21.7342 16.7685 21.7786 16.073 21.8655C15.1509 21.2967 14.5301 20.5154 14.0891 19.3675L14.1297 19.2013L14.1768 19.0047C14.34 18.3167 14.4276 17.8147 14.4538 17.3085C14.4735 16.9264 14.4523 16.5739 14.3844 16.2471C14.2591 15.5417 13.7601 15.1292 13.1314 15.1038C12.5451 15.0799 12.0062 15.4074 11.8685 15.9147C11.6442 16.7351 11.7755 17.8147 12.251 19.6559C11.6454 21.0997 10.8451 22.7925 10.3081 23.7366C9.59134 24.1062 9.03315 24.4424 8.56413 24.8151C7.9456 25.3072 7.55931 25.8131 7.45306 26.3443C7.40145 26.5906 7.47924 26.9124 7.65645 27.1761C7.85757 27.4751 8.16038 27.6694 8.52353 27.6975C9.43993 27.7684 10.5662 26.8236 11.8097 24.6898C11.9345 24.6481 12.0666 24.6041 12.2279 24.5494L12.6794 24.3969C12.9652 24.3005 13.1723 24.2315 13.3773 24.165C14.2652 23.8759 14.9369 23.6934 15.5478 23.5894C16.6095 24.1578 17.8367 24.5305 18.6632 24.5305C19.3455 24.5305 19.8065 24.1768 19.9731 23.6201C20.1192 23.1314 20.0035 22.5645 19.6893 22.251C19.3644 21.9319 18.7672 21.7794 17.957 21.7532ZM8.54667 26.6262V26.6126L8.55161 26.5997C8.60713 26.4562 8.6784 26.3192 8.76411 26.1914C8.92652 25.9417 9.15002 25.6791 9.42703 25.3994C9.57578 25.2496 9.7306 25.1035 9.91237 24.9395C9.95297 24.9031 10.2125 24.672 10.2611 24.6265L10.685 24.2318L10.3768 24.7225C9.90933 25.4677 9.48661 26.0043 9.1246 26.3542C8.99141 26.4832 8.87415 26.5781 8.77929 26.6392C8.74797 26.6601 8.71482 26.6781 8.68025 26.693C8.66469 26.6995 8.65103 26.7033 8.63737 26.7044C8.62295 26.7063 8.6083 26.7043 8.59487 26.6987C8.58058 26.6927 8.56839 26.6827 8.55981 26.6698C8.55124 26.6569 8.54667 26.6417 8.54667 26.6262ZM13.3256 18.3433L13.2399 18.4951L13.1868 18.3289C13.0691 17.9559 12.9826 17.3939 12.9587 16.8869C12.9314 16.3101 12.9773 15.9641 13.1594 15.9641C13.4152 15.9641 13.5325 16.3739 13.5416 16.9905C13.5499 17.5324 13.4645 18.0963 13.3253 18.3433H13.3256ZM13.1052 20.5617L13.1632 20.408L13.2425 20.5522C13.6861 21.3581 14.2618 22.0306 14.8947 22.4992L15.0313 22.6001L14.8648 22.6343C14.2451 22.7625 13.6679 22.9553 12.8786 23.2737C12.961 23.2403 12.0582 23.6099 11.8298 23.6975L11.6306 23.7738L11.7368 23.5886C12.2055 22.7728 12.6384 21.793 13.1048 20.5617H13.1052ZM19.0863 23.4554C18.788 23.5731 18.146 23.468 17.0156 22.9853L16.7287 22.8631L17.0398 22.8403C17.924 22.7747 18.5501 22.8233 18.9152 22.9568C19.0707 23.0138 19.1743 23.0855 19.2202 23.1674C19.2444 23.2062 19.2525 23.2529 19.2429 23.2976C19.2333 23.3423 19.2066 23.3815 19.1686 23.4069C19.1445 23.4281 19.1166 23.4446 19.0863 23.4554Z"/></svg>