<svg class="svgicon logo" xmlns="http://www.w3.org/2000/svg" width="324" height="55" viewBox="0 0 324 55"><path fill-rule="evenodd" clip-rule="evenodd" d="M38.2731 2.99943C39.4506 3.03203 39.3255 3.85942 39.1307 4.14467C35.6559 9.55017 27.4455 19.0681 21.4673 29.5109C20.4776 31.2029 19.7405 32.4478 19.7405 34.3046C19.7405 36.822 21.312 39.7984 24.4692 41.0756C26.5461 41.9076 27.8535 41.9332 30.0949 41.9655C46.7362 42.4802 53.4076 42.0305 68.2986 41.5252C69.1586 41.5228 69.9583 40.9434 70.2458 40.5934C73.1248 37.5915 74.7844 32.1951 74.7844 27.4338C74.7844 16.8289 67.1465 7.2763 55.2318 2.682L53.3195 5.13442C63.7623 9.45056 69.1586 18.0713 69.1586 27.304C69.1586 29.3811 68.8062 31.393 68.1687 33.3146C67.696 34.6546 67.1141 35.4241 65.4219 35.4496C53.2869 35.7092 46.4163 35.8993 34.2489 35.5794C32.6796 35.547 32.172 34.9745 31.917 33.7319C31.7222 32.9948 31.8846 32.3828 32.3923 31.458C38.8457 20.0255 50.0881 6.95866 52.2949 3.85942C52.7144 3.28691 52.5174 2.13256 51.0778 1.75014C46.8659 0.505304 42.1396 0 37.3482 0C15.6537 0.0880633 0.352256 12.2901 0 27.4338C0.869301 45.612 16.6758 55 37.3482 55C49.9978 55 61.5855 50.5284 68.3659 43.4375L62.1024 43.6902C56.3189 48.8339 47.0538 51.5831 37.4711 51.5831C20.0047 51.5831 5.78346 42.8974 5.78346 27.304C5.78346 13.892 20.0022 2.96704 37.4711 2.96704L38.2731 2.99943ZM181.764 35.8321L193.579 28.0737L175.695 14.752V18.0134H149.242C145.791 18.0134 142.951 20.4683 142.436 23.6647L173.104 23.6323V29.4459L149.657 29.4783C145.953 29.4783 142.918 32.2925 142.756 35.8321H181.764ZM294.105 17.916H321.224V12.1998H293.952C283.753 12.1998 275.42 19.9929 275.002 29.7658L307.877 29.7312C310.012 29.7312 311.736 31.1381 311.736 32.8326C311.736 34.5573 310.009 35.9319 307.877 35.9319L271.683 35.9294V12.1998H260.948V35.7742H239.39C236.226 35.2595 235.234 32.9624 235.234 28.4885L235.236 12.1998H217.925L202.362 22.2901L188.82 12.1998H147.165C137.932 12.1998 130.236 18.5535 128.542 27.0166H136.91C133.753 29.1584 131.324 32.1951 129.981 35.7766L103.496 35.7742C100.373 35.2595 99.3487 32.9624 99.3487 28.4885L99.351 12.1998H88.6462V27.4014C88.1966 37.4686 93.6578 41.0756 99.8887 41.6481L183.104 41.6457L198.438 31.7431L211.824 41.7779H228.204L207.351 26.094L224.499 14.9791L224.532 27.4014C224.091 37.4686 230.091 41.0756 236.324 41.6481L314.198 41.6457C319.564 41.6457 323.913 37.7213 323.913 32.8326C323.913 27.9739 319.562 24.0495 314.198 24.0495H287.302C287.554 20.6304 290.498 17.916 294.105 17.916Z"/></svg>